<svg xmlns="http://www.w3.org/2000/svg"  viewBox="0 0 64 64" width="64px" height="64px"><radialGradient id="RbJnniKIjDo23wwJ9NBMca" cx="32" cy="32" r="31.016" gradientUnits="userSpaceOnUse" spreadMethod="reflect"><stop offset="0" stop-color="#afeeff"/><stop offset=".193" stop-color="#bbf1ff"/><stop offset=".703" stop-color="#d7f8ff"/><stop offset="1" stop-color="#e1faff"/></radialGradient><path fill="url(#RbJnniKIjDo23wwJ9NBMca)" d="M59,20h1.5c2.168,0,3.892-1.998,3.422-4.243C63.58,14.122,62.056,13,60.385,13L56,13 c-1.105,0-2-0.895-2-2c0-1.105,0.895-2,2-2h0.385c1.67,0,3.195-1.122,3.537-2.757C60.392,3.998,58.668,2,56.5,2H34.006H32.5h-26 C4.575,2,3,3.575,3,5.5S4.575,9,6.5,9H8c1.105,0,2,0.895,2,2c0,1.105-0.895,2-2,2l-3.385,0c-1.67,0-3.195,1.122-3.537,2.757 C0.608,18.002,2.332,20,4.5,20H18v13L3.615,33c-1.67,0-3.195,1.122-3.537,2.757C-0.392,38.002,1.332,40,3.5,40H5 c1.105,0,2,0.895,2,2c0,1.105-0.895,2-2,2H4.5c-2.168,0-3.892,1.998-3.422,4.243C1.42,49.878,2.945,51,4.615,51H8 c1.105,0,2,0.895,2,2c0,1.105-0.895,2-2,2l-1.385,0c-1.67,0-3.195,1.122-3.537,2.757C2.608,60.002,4.332,62,6.5,62h24.494H32.5h24 c1.925,0,3.5-1.575,3.5-3.5S58.425,55,56.5,55H56c-1.105,0-2-0.895-2-2c0-1.105,0.895-2,2-2h4.385c1.67,0,3.195-1.122,3.537-2.757 C64.392,45.998,62.668,44,60.5,44H47V31h12.385c1.67,0,3.195-1.122,3.537-2.757C63.392,25.998,61.668,24,59.5,24H59 c-1.105,0-2-0.895-2-2C57,20.895,57.895,20,59,20z"/><linearGradient id="RbJnniKIjDo23wwJ9NBMcb" x1="32" x2="32" y1="52" y2="12" gradientUnits="userSpaceOnUse" spreadMethod="reflect"><stop offset="0" stop-color="#ff9757"/><stop offset="1" stop-color="#ffb65b"/><stop offset="1" stop-color="#ffb65b"/></linearGradient><path fill="url(#RbJnniKIjDo23wwJ9NBMcb)" d="M12,12h40v40H12V12z"/><linearGradient id="RbJnniKIjDo23wwJ9NBMcc" x1="32" x2="32" y1="60" y2="4" gradientUnits="userSpaceOnUse" spreadMethod="reflect"><stop offset="0" stop-color="#ff9757"/><stop offset="1" stop-color="#ffb65b"/><stop offset="1" stop-color="#ffb65b"/></linearGradient><path fill="url(#RbJnniKIjDo23wwJ9NBMcc)" d="M4,32L32,4l28,28L32,60L4,32z"/><linearGradient id="RbJnniKIjDo23wwJ9NBMcd" x1="32" x2="32" y1="56.713" y2="22.713" gradientUnits="userSpaceOnUse" spreadMethod="reflect"><stop offset="0" stop-color="#feaa53"/><stop offset=".612" stop-color="#ffcd49"/><stop offset="1" stop-color="#ffde44"/></linearGradient><path fill="url(#RbJnniKIjDo23wwJ9NBMcd)" d="M15,32c0,9.393,7.607,17,17,17c9.387,0,17-7.607,17-17s-7.613-17-17-17 C22.607,15,15,22.607,15,32"/></svg>